<?xml version="1.0" encoding="utf-8"?>
<!-- Generator: Adobe Illustrator 21.0.0, SVG Export Plug-In . SVG Version: 6.00 Build 0)  -->
<svg version="1.1" id="Capa_1" xmlns="http://www.w3.org/2000/svg" xmlns:xlink="http://www.w3.org/1999/xlink" x="0px" y="0px"
	 viewBox="0 0 25 25" style="enable-background:new 0 0 25 25;" xml:space="preserve">
<style type="text/css">
	.st0{fill:#E97721;}
	.st1{fill:#FFFFFF;}
</style>
<circle class="st0" cx="690.5" cy="535.5" r="89"/>
<g>
	<path class="st1" d="M721.5,585.2c-0.4,0-0.9-0.2-1.1-0.5L697.9,562c-0.6-0.6-0.6-1.6-0.1-2.2l1.7-1.9l-10.8-11
		c-0.3-0.3-0.5-0.7-0.5-1.2c0-0.4,0.2-0.8,0.5-1.2l5.8-5.6c0.3-0.3,0.8-0.5,1.2-0.5c0.4,0,0.8,0.2,1.1,0.5l10.1,10.6l1.7-1.9
		c0.3-0.3,0.7-0.5,1.2-0.5c0.6,0,0.9,0.2,1.2,0.5l22.7,23.1c0.3,0.3,0.4,0.6,0.5,0.9c0,0.2,0.5,4.9-2.6,8.7
		c-2.2,2.7-5.5,4.2-9.9,4.6C721.6,585.2,721.6,585.2,721.5,585.2 M701.2,560.8l20.9,21.1c3.1-0.4,5.4-1.5,6.9-3.3
		c1.7-2.1,1.9-4.7,1.9-5.8l-21.1-21.5l-1.7,1.9c-0.3,0.3-0.7,0.5-1.2,0.5h0c-0.4,0-0.9-0.2-1.2-0.5l-10.2-10.7l-3.4,3.3l10.7,10.9
		c0.6,0.6,0.6,1.6,0.1,2.2L701.2,560.8z"/>
	<path class="st1" d="M658.5,585.2c0,0-0.1,0-0.1,0c-4.4-0.4-7.7-1.9-9.9-4.6c-3.1-3.8-2.6-8.5-2.6-8.7c0-0.4,0.2-0.7,0.5-0.9
		l2.3-2.3c0.6-0.6,1.7-0.7,2.3,0c0.6,0.6,0.6,1.7,0,2.3l-1.8,1.9c0,1.1,0.2,3.7,1.9,5.8c1.5,1.8,3.8,2.9,6.9,3.3l20.9-21.1l-1.7-1.9
		c-0.6-0.6-0.5-1.6,0.1-2.2l28.8-28.8c0.5-0.5,1.2-0.6,1.8-0.3l12.7,5.5l21.2-21.6l-23.1-22.8l-21.1,21.3l5.5,12.9
		c0.3,0.6,0.1,1.3-0.3,1.8l-28.3,28.6c-0.3,0.3-0.8,0.5-1.2,0.5c-0.4,0-0.9-0.2-1.2-0.5l-1.7-1.9l-12.9,13.2c-0.6,0.6-1.7,0.6-2.3,0
		c-0.6-0.6-0.7-1.7,0-2.3l14.1-14.4c0.3-0.3,0.7-0.5,1.2-0.5h0c0.4,0,0.9,0.2,1.2,0.5l1.7,1.9l26.4-26.7l-5.5-12.9
		c-0.3-0.6-0.1-1.3,0.3-1.8l23.1-23.2c0.6-0.6,1.7-0.6,2.3,0l25.4,25c0.6,0.6,0.6,1.6,0,2.3L722,536.1c-0.5,0.5-1.2,0.6-1.8,0.4
		l-12.7-5.5l-27,27l1.7,1.9c0.6,0.6,0.5,1.6-0.1,2.2l-22.5,22.7C659.3,585.1,658.9,585.2,658.5,585.2"/>
	<path class="st1" d="M704.6,513.5c-0.4,0-0.8-0.2-1.2-0.5c-0.6-0.6-0.6-1.7,0-2.3l15-14.7c0.6-0.6,1.7-0.6,2.3,0
		c0.6,0.6,0.6,1.7,0,2.3l-15,14.7C705.5,513.4,705.1,513.5,704.6,513.5"/>
	<path class="st1" d="M710.6,521.5c-0.4,0-0.8-0.2-1.2-0.5c-0.6-0.6-0.6-1.7,0-2.3l16-15.8c0.6-0.6,1.7-0.6,2.3,0
		c0.6,0.6,0.6,1.7,0,2.3l-16,15.8C711.4,521.3,711,521.5,710.6,521.5"/>
	<path class="st1" d="M716.9,527.5c-0.4,0-0.9-0.2-1.2-0.5c-0.6-0.6-0.6-1.7,0-2.3l16.4-16c0.6-0.6,1.7-0.6,2.3,0
		c0.6,0.6,0.6,1.7,0,2.3l-16.4,16C717.7,527.4,717.3,527.5,716.9,527.5"/>
	<path class="st1" d="M684.1,541.1c-0.4,0-0.9-0.2-1.2-0.5c-2.7-3-6.2-6.3-7.6-7.2c-3.6,2.1-7.7,3.2-11.8,3.2
		c-12.9,0-23.5-10.5-23.5-23.5c0-12.9,10.5-23.5,23.5-23.5c12.9,0,23.5,10.5,23.5,23.5c0,4.5-1.8,9.6-3.7,13l7.3,7.7
		c0.6,0.6,0.6,1.7-0.1,2.3c-0.6,0.6-1.7,0.6-2.3-0.1l-8.1-8.6c-0.5-0.5-0.6-1.4-0.2-2c1.9-3,3.9-8.2,3.9-12.3
		c0-11.1-9.1-20.2-20.2-20.2c-11.1,0-20.2,9.1-20.2,20.2c0,11.2,9.1,20.2,20.2,20.2c3.8,0,7.5-1.1,10.7-3.1c1-0.6,2.3-1.4,11,8.1
		c0.6,0.7,0.6,1.7-0.1,2.3C684.9,541,684.5,541.1,684.1,541.1"/>
	<path class="st1" d="M665.5,503.9c0,1.5-1.3,2.8-2.8,2.8c-1.5,0-2.8-1.3-2.8-2.8c0-1.5,1.3-2.8,2.8-2.8
		C664.2,501.1,665.5,502.4,665.5,503.9"/>
	<path class="st1" d="M657.5,509c0,1.5-1.3,2.8-2.8,2.8c-1.5,0-2.8-1.3-2.8-2.8c0-1.5,1.2-2.8,2.8-2.8
		C656.2,506.2,657.5,507.5,657.5,509"/>
	<path class="st1" d="M665.5,513.7c0,1.5-1.3,2.8-2.8,2.8c-1.5,0-2.8-1.3-2.8-2.8c0-1.5,1.3-2.8,2.8-2.8
		C664.2,510.9,665.5,512.2,665.5,513.7"/>
	<path class="st1" d="M674.8,509c0,1.5-1.3,2.8-2.8,2.8c-1.5,0-2.8-1.3-2.8-2.8c0-1.5,1.3-2.8,2.8-2.8
		C673.5,506.2,674.8,507.5,674.8,509"/>
	<path class="st1" d="M674.8,518.9c0,1.5-1.3,2.8-2.8,2.8c-1.5,0-2.8-1.2-2.8-2.8c0-1.5,1.3-2.8,2.8-2.8
		C673.5,516.2,674.8,517.4,674.8,518.9"/>
	<path class="st1" d="M665.5,524.2c0,1.5-1.3,2.8-2.8,2.8c-1.5,0-2.8-1.3-2.8-2.8c0-1.5,1.3-2.8,2.8-2.8
		C664.2,521.4,665.5,522.6,665.5,524.2"/>
	<path class="st1" d="M657.5,518.9c0,1.5-1.3,2.8-2.8,2.8c-1.5,0-2.8-1.2-2.8-2.8c0-1.5,1.2-2.8,2.8-2.8
		C656.2,516.2,657.5,517.4,657.5,518.9"/>
</g>
<circle class="st0" cx="690.5" cy="535.5" r="89"/>
<g>
	<path class="st1" d="M721.5,585.2c-0.4,0-0.9-0.2-1.1-0.5L697.9,562c-0.6-0.6-0.6-1.6-0.1-2.2l1.7-1.9l-10.8-11
		c-0.3-0.3-0.5-0.7-0.5-1.2c0-0.4,0.2-0.8,0.5-1.2l5.8-5.6c0.3-0.3,0.8-0.5,1.2-0.5c0.4,0,0.8,0.2,1.1,0.5l10.1,10.6l1.7-1.9
		c0.3-0.3,0.7-0.5,1.2-0.5c0.6,0,0.9,0.2,1.2,0.5l22.7,23.1c0.3,0.3,0.4,0.6,0.5,0.9c0,0.2,0.5,4.9-2.6,8.7
		c-2.2,2.7-5.5,4.2-9.9,4.6C721.6,585.2,721.6,585.2,721.5,585.2 M701.2,560.8l20.9,21.1c3.1-0.4,5.4-1.5,6.9-3.3
		c1.7-2.1,1.9-4.7,1.9-5.8l-21.1-21.5l-1.7,1.9c-0.3,0.3-0.7,0.5-1.2,0.5h0c-0.4,0-0.9-0.2-1.2-0.5l-10.2-10.7l-3.4,3.3l10.7,10.9
		c0.6,0.6,0.6,1.6,0.1,2.2L701.2,560.8z"/>
	<path class="st1" d="M658.5,585.2c0,0-0.1,0-0.1,0c-4.4-0.4-7.7-1.9-9.9-4.6c-3.1-3.8-2.6-8.5-2.6-8.7c0-0.4,0.2-0.7,0.5-0.9
		l2.3-2.3c0.6-0.6,1.7-0.7,2.3,0c0.6,0.6,0.6,1.7,0,2.3l-1.8,1.9c0,1.1,0.2,3.7,1.9,5.8c1.5,1.8,3.8,2.9,6.9,3.3l20.9-21.1l-1.7-1.9
		c-0.6-0.6-0.5-1.6,0.1-2.2l28.8-28.8c0.5-0.5,1.2-0.6,1.8-0.3l12.7,5.5l21.2-21.6l-23.1-22.8l-21.1,21.3l5.5,12.9
		c0.3,0.6,0.1,1.3-0.3,1.8l-28.3,28.6c-0.3,0.3-0.8,0.5-1.2,0.5c-0.4,0-0.9-0.2-1.2-0.5l-1.7-1.9l-12.9,13.2c-0.6,0.6-1.7,0.6-2.3,0
		c-0.6-0.6-0.7-1.7,0-2.3l14.1-14.4c0.3-0.3,0.7-0.5,1.2-0.5h0c0.4,0,0.9,0.2,1.2,0.5l1.7,1.9l26.4-26.7l-5.5-12.9
		c-0.3-0.6-0.1-1.3,0.3-1.8l23.1-23.2c0.6-0.6,1.7-0.6,2.3,0l25.4,25c0.6,0.6,0.6,1.6,0,2.3L722,536.1c-0.5,0.5-1.2,0.6-1.8,0.4
		l-12.7-5.5l-27,27l1.7,1.9c0.6,0.6,0.5,1.6-0.1,2.2l-22.5,22.7C659.3,585.1,658.9,585.2,658.5,585.2"/>
	<path class="st1" d="M704.6,513.5c-0.4,0-0.8-0.2-1.2-0.5c-0.6-0.6-0.6-1.7,0-2.3l15-14.7c0.6-0.6,1.7-0.6,2.3,0
		c0.6,0.6,0.6,1.7,0,2.3l-15,14.7C705.5,513.4,705.1,513.5,704.6,513.5"/>
	<path class="st1" d="M710.6,521.5c-0.4,0-0.8-0.2-1.2-0.5c-0.6-0.6-0.6-1.7,0-2.3l16-15.8c0.6-0.6,1.7-0.6,2.3,0
		c0.6,0.6,0.6,1.7,0,2.3l-16,15.8C711.4,521.3,711,521.5,710.6,521.5"/>
	<path class="st1" d="M716.9,527.5c-0.4,0-0.9-0.2-1.2-0.5c-0.6-0.6-0.6-1.7,0-2.3l16.4-16c0.6-0.6,1.7-0.6,2.3,0
		c0.6,0.6,0.6,1.7,0,2.3l-16.4,16C717.7,527.4,717.3,527.5,716.9,527.5"/>
	<path class="st1" d="M684.1,541.1c-0.4,0-0.9-0.2-1.2-0.5c-2.7-3-6.2-6.3-7.6-7.2c-3.6,2.1-7.7,3.2-11.8,3.2
		c-12.9,0-23.5-10.5-23.5-23.5c0-12.9,10.5-23.5,23.5-23.5c12.9,0,23.5,10.5,23.5,23.5c0,4.5-1.8,9.6-3.7,13l7.3,7.7
		c0.6,0.6,0.6,1.7-0.1,2.3c-0.6,0.6-1.7,0.6-2.3-0.1l-8.1-8.6c-0.5-0.5-0.6-1.4-0.2-2c1.9-3,3.9-8.2,3.9-12.3
		c0-11.1-9.1-20.2-20.2-20.2c-11.1,0-20.2,9.1-20.2,20.2c0,11.2,9.1,20.2,20.2,20.2c3.8,0,7.5-1.1,10.7-3.1c1-0.6,2.3-1.4,11,8.1
		c0.6,0.7,0.6,1.7-0.1,2.3C684.9,541,684.5,541.1,684.1,541.1"/>
	<path class="st1" d="M665.5,503.9c0,1.5-1.3,2.8-2.8,2.8c-1.5,0-2.8-1.3-2.8-2.8c0-1.5,1.3-2.8,2.8-2.8
		C664.2,501.1,665.5,502.4,665.5,503.9"/>
	<path class="st1" d="M657.5,509c0,1.5-1.3,2.8-2.8,2.8c-1.5,0-2.8-1.3-2.8-2.8c0-1.5,1.2-2.8,2.8-2.8
		C656.2,506.2,657.5,507.5,657.5,509"/>
	<path class="st1" d="M665.5,513.7c0,1.5-1.3,2.8-2.8,2.8c-1.5,0-2.8-1.3-2.8-2.8c0-1.5,1.3-2.8,2.8-2.8
		C664.2,510.9,665.5,512.2,665.5,513.7"/>
	<path class="st1" d="M674.8,509c0,1.5-1.3,2.8-2.8,2.8c-1.5,0-2.8-1.3-2.8-2.8c0-1.5,1.3-2.8,2.8-2.8
		C673.5,506.2,674.8,507.5,674.8,509"/>
	<path class="st1" d="M674.8,518.9c0,1.5-1.3,2.8-2.8,2.8c-1.5,0-2.8-1.2-2.8-2.8c0-1.5,1.3-2.8,2.8-2.8
		C673.5,516.2,674.8,517.4,674.8,518.9"/>
	<path class="st1" d="M665.5,524.2c0,1.5-1.3,2.8-2.8,2.8c-1.5,0-2.8-1.3-2.8-2.8c0-1.5,1.3-2.8,2.8-2.8
		C664.2,521.4,665.5,522.6,665.5,524.2"/>
	<path class="st1" d="M657.5,518.9c0,1.5-1.3,2.8-2.8,2.8c-1.5,0-2.8-1.2-2.8-2.8c0-1.5,1.2-2.8,2.8-2.8
		C656.2,516.2,657.5,517.4,657.5,518.9"/>
</g>
<path class="st1" d="M23.5,6.4l-2.1,7.6c-0.1,0.3-0.4,0.5-0.7,0.5H8.4c-0.3,0-0.6-0.2-0.7-0.5L5.1,4.8H2.2c-0.4,0-0.7-0.3-0.7-0.7
	s0.3-0.7,0.7-0.7h3.4c0.3,0,0.6,0.2,0.7,0.5l0.4,1.6h16.1C23.3,5.5,23.6,5.9,23.5,6.4z M10.1,16.8c-1.3,0-2.4,1.1-2.4,2.4
	c0,1.3,1.1,2.4,2.4,2.4s2.4-1.1,2.4-2.4C12.5,17.8,11.4,16.8,10.1,16.8z M19,16.8c-1.3,0-2.4,1.1-2.4,2.4c0,1.3,1.1,2.4,2.4,2.4
	c1.3,0,2.4-1.1,2.4-2.4C21.4,17.8,20.4,16.8,19,16.8z"/>
</svg>
