<?xml version="1.0" encoding="utf-8"?>
<!-- Generator: Adobe Illustrator 21.0.0, SVG Export Plug-In . SVG Version: 6.00 Build 0)  -->
<svg version="1.1" id="Capa_1" xmlns="http://www.w3.org/2000/svg" xmlns:xlink="http://www.w3.org/1999/xlink" x="0px" y="0px"
	 viewBox="0 0 200 200" style="enable-background:new 0 0 200 200;" xml:space="preserve">
<style type="text/css">
	.st0{fill:#E97721;}
	.st1{fill:#FFFFFF;}
	.st2{fill:#BF7200;}
</style>
<circle class="st0" cx="775" cy="622" r="89"/>
<g>
	<path class="st1" d="M806,671.7c-0.4,0-0.9-0.2-1.1-0.5l-22.5-22.7c-0.6-0.6-0.6-1.6-0.1-2.2l1.7-1.9l-10.8-11
		c-0.3-0.3-0.5-0.7-0.5-1.2c0-0.4,0.2-0.8,0.5-1.2l5.8-5.6c0.3-0.3,0.8-0.5,1.2-0.5c0.4,0,0.8,0.2,1.1,0.5l10.1,10.6l1.7-1.9
		c0.3-0.3,0.7-0.5,1.2-0.5c0.6,0,0.9,0.2,1.2,0.5l22.7,23.1c0.3,0.3,0.4,0.6,0.5,0.9c0,0.2,0.5,4.9-2.6,8.7
		c-2.2,2.7-5.5,4.2-9.9,4.6C806.1,671.7,806.1,671.7,806,671.7 M785.7,647.3l20.9,21.1c3.1-0.4,5.4-1.5,6.9-3.3
		c1.7-2.1,1.9-4.7,1.9-5.8l-21.1-21.5l-1.7,1.9c-0.3,0.3-0.7,0.5-1.2,0.5h0c-0.4,0-0.9-0.2-1.2-0.5L780.1,629l-3.4,3.3l10.7,10.9
		c0.6,0.6,0.6,1.6,0.1,2.2L785.7,647.3z"/>
	<path class="st1" d="M743,671.7c0,0-0.1,0-0.1,0c-4.4-0.4-7.7-1.9-9.9-4.6c-3.1-3.8-2.6-8.5-2.6-8.7c0-0.4,0.2-0.7,0.5-0.9l2.3-2.3
		c0.6-0.6,1.7-0.7,2.3,0c0.6,0.6,0.6,1.7,0,2.3l-1.8,1.9c0,1.1,0.2,3.7,1.9,5.8c1.5,1.8,3.8,2.9,6.9,3.3l20.9-21.1l-1.7-1.9
		c-0.6-0.6-0.5-1.6,0.1-2.2l28.8-28.8c0.5-0.5,1.2-0.6,1.8-0.3l12.7,5.5l21.2-21.6L803,575.1l-21.1,21.3l5.5,12.9
		c0.3,0.6,0.1,1.3-0.3,1.8l-28.3,28.6c-0.3,0.3-0.8,0.5-1.2,0.5c-0.4,0-0.9-0.2-1.2-0.5l-1.7-1.9L741.7,651c-0.6,0.6-1.7,0.6-2.3,0
		c-0.6-0.6-0.7-1.7,0-2.3l14.1-14.4c0.3-0.3,0.7-0.5,1.2-0.5h0c0.4,0,0.9,0.2,1.2,0.5l1.7,1.9l26.4-26.7l-5.5-12.9
		c-0.3-0.6-0.1-1.3,0.3-1.8l23.1-23.2c0.6-0.6,1.7-0.6,2.3,0l25.4,25c0.6,0.6,0.6,1.6,0,2.3l-23.1,23.6c-0.5,0.5-1.2,0.6-1.8,0.4
		l-12.7-5.5l-27,27l1.7,1.9c0.6,0.6,0.5,1.6-0.1,2.2l-22.5,22.7C743.8,671.6,743.4,671.7,743,671.7"/>
	<path class="st1" d="M789.1,600c-0.4,0-0.8-0.2-1.2-0.5c-0.6-0.6-0.6-1.7,0-2.3l15-14.7c0.6-0.6,1.7-0.6,2.3,0
		c0.6,0.6,0.6,1.7,0,2.3l-15,14.7C790,599.9,789.6,600,789.1,600"/>
	<path class="st1" d="M795.1,608c-0.4,0-0.8-0.2-1.2-0.5c-0.6-0.6-0.6-1.7,0-2.3l16-15.8c0.6-0.6,1.7-0.6,2.3,0
		c0.6,0.6,0.6,1.7,0,2.3l-16,15.8C795.9,607.8,795.5,608,795.1,608"/>
	<path class="st1" d="M801.4,614c-0.4,0-0.9-0.2-1.2-0.5c-0.6-0.6-0.6-1.7,0-2.3l16.4-16c0.6-0.6,1.7-0.6,2.3,0
		c0.6,0.6,0.6,1.7,0,2.3l-16.4,16C802.2,613.9,801.8,614,801.4,614"/>
	<path class="st1" d="M768.6,627.6c-0.4,0-0.9-0.2-1.2-0.5c-2.7-3-6.2-6.3-7.6-7.2c-3.6,2.1-7.7,3.2-11.8,3.2
		c-12.9,0-23.5-10.5-23.5-23.5c0-12.9,10.5-23.5,23.5-23.5c12.9,0,23.5,10.5,23.5,23.5c0,4.5-1.8,9.6-3.7,13l7.3,7.7
		c0.6,0.6,0.6,1.7-0.1,2.3c-0.6,0.6-1.7,0.6-2.3-0.1l-8.1-8.6c-0.5-0.5-0.6-1.4-0.2-2c1.9-3,3.9-8.2,3.9-12.3
		c0-11.1-9.1-20.2-20.2-20.2c-11.1,0-20.2,9.1-20.2,20.2c0,11.2,9.1,20.2,20.2,20.2c3.8,0,7.5-1.1,10.7-3.1c1-0.6,2.3-1.4,11,8.1
		c0.6,0.7,0.6,1.7-0.1,2.3C769.4,627.5,769,627.6,768.6,627.6"/>
	<path class="st1" d="M750,590.4c0,1.5-1.3,2.8-2.8,2.8c-1.5,0-2.8-1.3-2.8-2.8c0-1.5,1.3-2.8,2.8-2.8
		C748.7,587.6,750,588.9,750,590.4"/>
	<path class="st1" d="M742,595.5c0,1.5-1.3,2.8-2.8,2.8c-1.5,0-2.8-1.3-2.8-2.8c0-1.5,1.2-2.8,2.8-2.8
		C740.7,592.7,742,594,742,595.5"/>
	<path class="st1" d="M750,600.2c0,1.5-1.3,2.8-2.8,2.8c-1.5,0-2.8-1.3-2.8-2.8c0-1.5,1.3-2.8,2.8-2.8
		C748.7,597.4,750,598.7,750,600.2"/>
	<path class="st1" d="M759.3,595.5c0,1.5-1.3,2.8-2.8,2.8c-1.5,0-2.8-1.3-2.8-2.8c0-1.5,1.3-2.8,2.8-2.8
		C758,592.7,759.3,594,759.3,595.5"/>
	<path class="st1" d="M759.3,605.4c0,1.5-1.3,2.8-2.8,2.8c-1.5,0-2.8-1.2-2.8-2.8c0-1.5,1.3-2.8,2.8-2.8
		C758,602.7,759.3,603.9,759.3,605.4"/>
	<path class="st1" d="M750,610.7c0,1.5-1.3,2.8-2.8,2.8c-1.5,0-2.8-1.3-2.8-2.8c0-1.5,1.3-2.8,2.8-2.8
		C748.7,607.9,750,609.1,750,610.7"/>
	<path class="st1" d="M742,605.4c0,1.5-1.3,2.8-2.8,2.8c-1.5,0-2.8-1.2-2.8-2.8c0-1.5,1.2-2.8,2.8-2.8
		C740.7,602.7,742,603.9,742,605.4"/>
</g>
<circle class="st0" cx="775" cy="622" r="89"/>
<g>
	<path class="st1" d="M806,671.7c-0.4,0-0.9-0.2-1.1-0.5l-22.5-22.7c-0.6-0.6-0.6-1.6-0.1-2.2l1.7-1.9l-10.8-11
		c-0.3-0.3-0.5-0.7-0.5-1.2c0-0.4,0.2-0.8,0.5-1.2l5.8-5.6c0.3-0.3,0.8-0.5,1.2-0.5c0.4,0,0.8,0.2,1.1,0.5l10.1,10.6l1.7-1.9
		c0.3-0.3,0.7-0.5,1.2-0.5c0.6,0,0.9,0.2,1.2,0.5l22.7,23.1c0.3,0.3,0.4,0.6,0.5,0.9c0,0.2,0.5,4.9-2.6,8.7
		c-2.2,2.7-5.5,4.2-9.9,4.6C806.1,671.7,806.1,671.7,806,671.7 M785.7,647.3l20.9,21.1c3.1-0.4,5.4-1.5,6.9-3.3
		c1.7-2.1,1.9-4.7,1.9-5.8l-21.1-21.5l-1.7,1.9c-0.3,0.3-0.7,0.5-1.2,0.5h0c-0.4,0-0.9-0.2-1.2-0.5L780.1,629l-3.4,3.3l10.7,10.9
		c0.6,0.6,0.6,1.6,0.1,2.2L785.7,647.3z"/>
	<path class="st1" d="M743,671.7c0,0-0.1,0-0.1,0c-4.4-0.4-7.7-1.9-9.9-4.6c-3.1-3.8-2.6-8.5-2.6-8.7c0-0.4,0.2-0.7,0.5-0.9l2.3-2.3
		c0.6-0.6,1.7-0.7,2.3,0c0.6,0.6,0.6,1.7,0,2.3l-1.8,1.9c0,1.1,0.2,3.7,1.9,5.8c1.5,1.8,3.8,2.9,6.9,3.3l20.9-21.1l-1.7-1.9
		c-0.6-0.6-0.5-1.6,0.1-2.2l28.8-28.8c0.5-0.5,1.2-0.6,1.8-0.3l12.7,5.5l21.2-21.6L803,575.1l-21.1,21.3l5.5,12.9
		c0.3,0.6,0.1,1.3-0.3,1.8l-28.3,28.6c-0.3,0.3-0.8,0.5-1.2,0.5c-0.4,0-0.9-0.2-1.2-0.5l-1.7-1.9L741.7,651c-0.6,0.6-1.7,0.6-2.3,0
		c-0.6-0.6-0.7-1.7,0-2.3l14.1-14.4c0.3-0.3,0.7-0.5,1.2-0.5h0c0.4,0,0.9,0.2,1.2,0.5l1.7,1.9l26.4-26.7l-5.5-12.9
		c-0.3-0.6-0.1-1.3,0.3-1.8l23.1-23.2c0.6-0.6,1.7-0.6,2.3,0l25.4,25c0.6,0.6,0.6,1.6,0,2.3l-23.1,23.6c-0.5,0.5-1.2,0.6-1.8,0.4
		l-12.7-5.5l-27,27l1.7,1.9c0.6,0.6,0.5,1.6-0.1,2.2l-22.5,22.7C743.8,671.6,743.4,671.7,743,671.7"/>
	<path class="st1" d="M789.1,600c-0.4,0-0.8-0.2-1.2-0.5c-0.6-0.6-0.6-1.7,0-2.3l15-14.7c0.6-0.6,1.7-0.6,2.3,0
		c0.6,0.6,0.6,1.7,0,2.3l-15,14.7C790,599.9,789.6,600,789.1,600"/>
	<path class="st1" d="M795.1,608c-0.4,0-0.8-0.2-1.2-0.5c-0.6-0.6-0.6-1.7,0-2.3l16-15.8c0.6-0.6,1.7-0.6,2.3,0
		c0.6,0.6,0.6,1.7,0,2.3l-16,15.8C795.9,607.8,795.5,608,795.1,608"/>
	<path class="st1" d="M801.4,614c-0.4,0-0.9-0.2-1.2-0.5c-0.6-0.6-0.6-1.7,0-2.3l16.4-16c0.6-0.6,1.7-0.6,2.3,0
		c0.6,0.6,0.6,1.7,0,2.3l-16.4,16C802.2,613.9,801.8,614,801.4,614"/>
	<path class="st1" d="M768.6,627.6c-0.4,0-0.9-0.2-1.2-0.5c-2.7-3-6.2-6.3-7.6-7.2c-3.6,2.1-7.7,3.2-11.8,3.2
		c-12.9,0-23.5-10.5-23.5-23.5c0-12.9,10.5-23.5,23.5-23.5c12.9,0,23.5,10.5,23.5,23.5c0,4.5-1.8,9.6-3.7,13l7.3,7.7
		c0.6,0.6,0.6,1.7-0.1,2.3c-0.6,0.6-1.7,0.6-2.3-0.1l-8.1-8.6c-0.5-0.5-0.6-1.4-0.2-2c1.9-3,3.9-8.2,3.9-12.3
		c0-11.1-9.1-20.2-20.2-20.2c-11.1,0-20.2,9.1-20.2,20.2c0,11.2,9.1,20.2,20.2,20.2c3.8,0,7.5-1.1,10.7-3.1c1-0.6,2.3-1.4,11,8.1
		c0.6,0.7,0.6,1.7-0.1,2.3C769.4,627.5,769,627.6,768.6,627.6"/>
	<path class="st1" d="M750,590.4c0,1.5-1.3,2.8-2.8,2.8c-1.5,0-2.8-1.3-2.8-2.8c0-1.5,1.3-2.8,2.8-2.8
		C748.7,587.6,750,588.9,750,590.4"/>
	<path class="st1" d="M742,595.5c0,1.5-1.3,2.8-2.8,2.8c-1.5,0-2.8-1.3-2.8-2.8c0-1.5,1.2-2.8,2.8-2.8
		C740.7,592.7,742,594,742,595.5"/>
	<path class="st1" d="M750,600.2c0,1.5-1.3,2.8-2.8,2.8c-1.5,0-2.8-1.3-2.8-2.8c0-1.5,1.3-2.8,2.8-2.8
		C748.7,597.4,750,598.7,750,600.2"/>
	<path class="st1" d="M759.3,595.5c0,1.5-1.3,2.8-2.8,2.8c-1.5,0-2.8-1.3-2.8-2.8c0-1.5,1.3-2.8,2.8-2.8
		C758,592.7,759.3,594,759.3,595.5"/>
	<path class="st1" d="M759.3,605.4c0,1.5-1.3,2.8-2.8,2.8c-1.5,0-2.8-1.2-2.8-2.8c0-1.5,1.3-2.8,2.8-2.8
		C758,602.7,759.3,603.9,759.3,605.4"/>
	<path class="st1" d="M750,610.7c0,1.5-1.3,2.8-2.8,2.8c-1.5,0-2.8-1.3-2.8-2.8c0-1.5,1.3-2.8,2.8-2.8
		C748.7,607.9,750,609.1,750,610.7"/>
	<path class="st1" d="M742,605.4c0,1.5-1.3,2.8-2.8,2.8c-1.5,0-2.8-1.2-2.8-2.8c0-1.5,1.2-2.8,2.8-2.8
		C740.7,602.7,742,603.9,742,605.4"/>
</g>
<g>
	<circle class="st2" cx="100" cy="100" r="89"/>
	<g>
		<g>
			<path class="st1" d="M150.9,114.4h-8c-1.1,0-2-0.9-2-2s0.9-2,2-2h8c0.7,0,1.1-0.6,1.2-0.9c0.2-0.5,0.2-1.3-0.4-1.8l-50.9-46.7
				c-0.5-0.4-1.1-0.4-1.6,0l-18,16.5c-0.6,0.5-1.4,0.7-2.2,0.4c-0.7-0.3-1.2-1-1.2-1.8V60.9l-12.7,0v20.3c0,1.1-0.9,2-2,2
				s-2-0.9-2-2V58.9c0-0.5,0.2-1,0.6-1.4c0.4-0.4,0.9-0.6,1.4-0.6c0,0,0,0,0,0l16.7,0c1.1,0,2,0.9,2,2v12.7l14.7-13.5
				c2-1.8,5-1.8,7,0l50.9,46.7c1.7,1.6,2.3,4,1.4,6.2C155,113.1,153.1,114.4,150.9,114.4z"/>
			<path class="st1" d="M68.5,143.2c-1.1,0-2-0.9-2-2v-28.8c0-1.1,0.9-2,2-2s2,0.9,2,2v28.8C70.5,142.3,69.6,143.2,68.5,143.2z"/>
			<path class="st1" d="M133.9,143.2c-1.1,0-2-0.9-2-2v-26.8H49.1c-2.2,0-4.1-1.3-4.9-3.4c-0.9-2.2-0.3-4.6,1.4-6.2L61.8,90
				c0.8-0.7,2.1-0.7,2.8,0.1c0.7,0.8,0.7,2.1-0.1,2.8l-16.2,14.8c-0.6,0.5-0.6,1.3-0.4,1.8c0.1,0.3,0.4,0.9,1.1,0.9h84.9
				c1.1,0,2,0.9,2,2v28.8C135.9,142.3,135,143.2,133.9,143.2z"/>
		</g>
	</g>
</g>
</svg>
