<?xml version="1.0" encoding="utf-8"?>
<!-- Generator: Adobe Illustrator 21.0.0, SVG Export Plug-In . SVG Version: 6.00 Build 0)  -->
<svg version="1.1" id="Capa_1" xmlns="http://www.w3.org/2000/svg" xmlns:xlink="http://www.w3.org/1999/xlink" x="0px" y="0px"
	 viewBox="0 0 200 200" style="enable-background:new 0 0 200 200;" xml:space="preserve">
<style type="text/css">
	.st0{fill:#E97721;}
	.st1{fill:#FFFFFF;}
</style>
<circle class="st0" cx="775" cy="622" r="89"/>
<g>
	<path class="st1" d="M806,671.7c-0.4,0-0.9-0.2-1.1-0.5l-22.5-22.7c-0.6-0.6-0.6-1.6-0.1-2.2l1.7-1.9l-10.8-11
		c-0.3-0.3-0.5-0.7-0.5-1.2c0-0.4,0.2-0.8,0.5-1.2l5.8-5.6c0.3-0.3,0.8-0.5,1.2-0.5c0.4,0,0.8,0.2,1.1,0.5l10.1,10.6l1.7-1.9
		c0.3-0.3,0.7-0.5,1.2-0.5c0.6,0,0.9,0.2,1.2,0.5l22.7,23.1c0.3,0.3,0.4,0.6,0.5,0.9c0,0.2,0.5,4.9-2.6,8.7
		c-2.2,2.7-5.5,4.2-9.9,4.6C806.1,671.7,806.1,671.7,806,671.7 M785.7,647.3l20.9,21.1c3.1-0.4,5.4-1.5,6.9-3.3
		c1.7-2.1,1.9-4.7,1.9-5.8l-21.1-21.5l-1.7,1.9c-0.3,0.3-0.7,0.5-1.2,0.5h0c-0.4,0-0.9-0.2-1.2-0.5L780.1,629l-3.4,3.3l10.7,10.9
		c0.6,0.6,0.6,1.6,0.1,2.2L785.7,647.3z"/>
	<path class="st1" d="M743,671.7c0,0-0.1,0-0.1,0c-4.4-0.4-7.7-1.9-9.9-4.6c-3.1-3.8-2.6-8.5-2.6-8.7c0-0.4,0.2-0.7,0.5-0.9l2.3-2.3
		c0.6-0.6,1.7-0.7,2.3,0c0.6,0.6,0.6,1.7,0,2.3l-1.8,1.9c0,1.1,0.2,3.7,1.9,5.8c1.5,1.8,3.8,2.9,6.9,3.3l20.9-21.1l-1.7-1.9
		c-0.6-0.6-0.5-1.6,0.1-2.2l28.8-28.8c0.5-0.5,1.2-0.6,1.8-0.3l12.7,5.5l21.2-21.6L803,575.1l-21.1,21.3l5.5,12.9
		c0.3,0.6,0.1,1.3-0.3,1.8l-28.3,28.6c-0.3,0.3-0.8,0.5-1.2,0.5c-0.4,0-0.9-0.2-1.2-0.5l-1.7-1.9L741.7,651c-0.6,0.6-1.7,0.6-2.3,0
		c-0.6-0.6-0.7-1.7,0-2.3l14.1-14.4c0.3-0.3,0.7-0.5,1.2-0.5h0c0.4,0,0.9,0.2,1.2,0.5l1.7,1.9l26.4-26.7l-5.5-12.9
		c-0.3-0.6-0.1-1.3,0.3-1.8l23.1-23.2c0.6-0.6,1.7-0.6,2.3,0l25.4,25c0.6,0.6,0.6,1.6,0,2.3l-23.1,23.6c-0.5,0.5-1.2,0.6-1.8,0.4
		l-12.7-5.5l-27,27l1.7,1.9c0.6,0.6,0.5,1.6-0.1,2.2l-22.5,22.7C743.8,671.6,743.4,671.7,743,671.7"/>
	<path class="st1" d="M789.1,600c-0.4,0-0.8-0.2-1.2-0.5c-0.6-0.6-0.6-1.7,0-2.3l15-14.7c0.6-0.6,1.7-0.6,2.3,0
		c0.6,0.6,0.6,1.7,0,2.3l-15,14.7C790,599.9,789.6,600,789.1,600"/>
	<path class="st1" d="M795.1,608c-0.4,0-0.8-0.2-1.2-0.5c-0.6-0.6-0.6-1.7,0-2.3l16-15.8c0.6-0.6,1.7-0.6,2.3,0
		c0.6,0.6,0.6,1.7,0,2.3l-16,15.8C795.9,607.8,795.5,608,795.1,608"/>
	<path class="st1" d="M801.4,614c-0.4,0-0.9-0.2-1.2-0.5c-0.6-0.6-0.6-1.7,0-2.3l16.4-16c0.6-0.6,1.7-0.6,2.3,0
		c0.6,0.6,0.6,1.7,0,2.3l-16.4,16C802.2,613.9,801.8,614,801.4,614"/>
	<path class="st1" d="M768.6,627.6c-0.4,0-0.9-0.2-1.2-0.5c-2.7-3-6.2-6.3-7.6-7.2c-3.6,2.1-7.7,3.2-11.8,3.2
		c-12.9,0-23.5-10.5-23.5-23.5c0-12.9,10.5-23.5,23.5-23.5c12.9,0,23.5,10.5,23.5,23.5c0,4.5-1.8,9.6-3.7,13l7.3,7.7
		c0.6,0.6,0.6,1.7-0.1,2.3c-0.6,0.6-1.7,0.6-2.3-0.1l-8.1-8.6c-0.5-0.5-0.6-1.4-0.2-2c1.9-3,3.9-8.2,3.9-12.3
		c0-11.1-9.1-20.2-20.2-20.2c-11.1,0-20.2,9.1-20.2,20.2c0,11.2,9.1,20.2,20.2,20.2c3.8,0,7.5-1.1,10.7-3.1c1-0.6,2.3-1.4,11,8.1
		c0.6,0.7,0.6,1.7-0.1,2.3C769.4,627.5,769,627.6,768.6,627.6"/>
	<path class="st1" d="M750,590.4c0,1.5-1.3,2.8-2.8,2.8c-1.5,0-2.8-1.3-2.8-2.8c0-1.5,1.3-2.8,2.8-2.8
		C748.7,587.6,750,588.9,750,590.4"/>
	<path class="st1" d="M742,595.5c0,1.5-1.3,2.8-2.8,2.8c-1.5,0-2.8-1.3-2.8-2.8c0-1.5,1.2-2.8,2.8-2.8
		C740.7,592.7,742,594,742,595.5"/>
	<path class="st1" d="M750,600.2c0,1.5-1.3,2.8-2.8,2.8c-1.5,0-2.8-1.3-2.8-2.8c0-1.5,1.3-2.8,2.8-2.8
		C748.7,597.4,750,598.7,750,600.2"/>
	<path class="st1" d="M759.3,595.5c0,1.5-1.3,2.8-2.8,2.8c-1.5,0-2.8-1.3-2.8-2.8c0-1.5,1.3-2.8,2.8-2.8
		C758,592.7,759.3,594,759.3,595.5"/>
	<path class="st1" d="M759.3,605.4c0,1.5-1.3,2.8-2.8,2.8c-1.5,0-2.8-1.2-2.8-2.8c0-1.5,1.3-2.8,2.8-2.8
		C758,602.7,759.3,603.9,759.3,605.4"/>
	<path class="st1" d="M750,610.7c0,1.5-1.3,2.8-2.8,2.8c-1.5,0-2.8-1.3-2.8-2.8c0-1.5,1.3-2.8,2.8-2.8
		C748.7,607.9,750,609.1,750,610.7"/>
	<path class="st1" d="M742,605.4c0,1.5-1.3,2.8-2.8,2.8c-1.5,0-2.8-1.2-2.8-2.8c0-1.5,1.2-2.8,2.8-2.8
		C740.7,602.7,742,603.9,742,605.4"/>
</g>
<circle class="st0" cx="775" cy="622" r="89"/>
<g>
	<path class="st1" d="M806,671.7c-0.4,0-0.9-0.2-1.1-0.5l-22.5-22.7c-0.6-0.6-0.6-1.6-0.1-2.2l1.7-1.9l-10.8-11
		c-0.3-0.3-0.5-0.7-0.5-1.2c0-0.4,0.2-0.8,0.5-1.2l5.8-5.6c0.3-0.3,0.8-0.5,1.2-0.5c0.4,0,0.8,0.2,1.1,0.5l10.1,10.6l1.7-1.9
		c0.3-0.3,0.7-0.5,1.2-0.5c0.6,0,0.9,0.2,1.2,0.5l22.7,23.1c0.3,0.3,0.4,0.6,0.5,0.9c0,0.2,0.5,4.9-2.6,8.7
		c-2.2,2.7-5.5,4.2-9.9,4.6C806.1,671.7,806.1,671.7,806,671.7 M785.7,647.3l20.9,21.1c3.1-0.4,5.4-1.5,6.9-3.3
		c1.7-2.1,1.9-4.7,1.9-5.8l-21.1-21.5l-1.7,1.9c-0.3,0.3-0.7,0.5-1.2,0.5h0c-0.4,0-0.9-0.2-1.2-0.5L780.1,629l-3.4,3.3l10.7,10.9
		c0.6,0.6,0.6,1.6,0.1,2.2L785.7,647.3z"/>
	<path class="st1" d="M743,671.7c0,0-0.1,0-0.1,0c-4.4-0.4-7.7-1.9-9.9-4.6c-3.1-3.8-2.6-8.5-2.6-8.7c0-0.4,0.2-0.7,0.5-0.9l2.3-2.3
		c0.6-0.6,1.7-0.7,2.3,0c0.6,0.6,0.6,1.7,0,2.3l-1.8,1.9c0,1.1,0.2,3.7,1.9,5.8c1.5,1.8,3.8,2.9,6.9,3.3l20.9-21.1l-1.7-1.9
		c-0.6-0.6-0.5-1.6,0.1-2.2l28.8-28.8c0.5-0.5,1.2-0.6,1.8-0.3l12.7,5.5l21.2-21.6L803,575.1l-21.1,21.3l5.5,12.9
		c0.3,0.6,0.1,1.3-0.3,1.8l-28.3,28.6c-0.3,0.3-0.8,0.5-1.2,0.5c-0.4,0-0.9-0.2-1.2-0.5l-1.7-1.9L741.7,651c-0.6,0.6-1.7,0.6-2.3,0
		c-0.6-0.6-0.7-1.7,0-2.3l14.1-14.4c0.3-0.3,0.7-0.5,1.2-0.5h0c0.4,0,0.9,0.2,1.2,0.5l1.7,1.9l26.4-26.7l-5.5-12.9
		c-0.3-0.6-0.1-1.3,0.3-1.8l23.1-23.2c0.6-0.6,1.7-0.6,2.3,0l25.4,25c0.6,0.6,0.6,1.6,0,2.3l-23.1,23.6c-0.5,0.5-1.2,0.6-1.8,0.4
		l-12.7-5.5l-27,27l1.7,1.9c0.6,0.6,0.5,1.6-0.1,2.2l-22.5,22.7C743.8,671.6,743.4,671.7,743,671.7"/>
	<path class="st1" d="M789.1,600c-0.4,0-0.8-0.2-1.2-0.5c-0.6-0.6-0.6-1.7,0-2.3l15-14.7c0.6-0.6,1.7-0.6,2.3,0
		c0.6,0.6,0.6,1.7,0,2.3l-15,14.7C790,599.9,789.6,600,789.1,600"/>
	<path class="st1" d="M795.1,608c-0.4,0-0.8-0.2-1.2-0.5c-0.6-0.6-0.6-1.7,0-2.3l16-15.8c0.6-0.6,1.7-0.6,2.3,0
		c0.6,0.6,0.6,1.7,0,2.3l-16,15.8C795.9,607.8,795.5,608,795.1,608"/>
	<path class="st1" d="M801.4,614c-0.4,0-0.9-0.2-1.2-0.5c-0.6-0.6-0.6-1.7,0-2.3l16.4-16c0.6-0.6,1.7-0.6,2.3,0
		c0.6,0.6,0.6,1.7,0,2.3l-16.4,16C802.2,613.9,801.8,614,801.4,614"/>
	<path class="st1" d="M768.6,627.6c-0.4,0-0.9-0.2-1.2-0.5c-2.7-3-6.2-6.3-7.6-7.2c-3.6,2.1-7.7,3.2-11.8,3.2
		c-12.9,0-23.5-10.5-23.5-23.5c0-12.9,10.5-23.5,23.5-23.5c12.9,0,23.5,10.5,23.5,23.5c0,4.5-1.8,9.6-3.7,13l7.3,7.7
		c0.6,0.6,0.6,1.7-0.1,2.3c-0.6,0.6-1.7,0.6-2.3-0.1l-8.1-8.6c-0.5-0.5-0.6-1.4-0.2-2c1.9-3,3.9-8.2,3.9-12.3
		c0-11.1-9.1-20.2-20.2-20.2c-11.1,0-20.2,9.1-20.2,20.2c0,11.2,9.1,20.2,20.2,20.2c3.8,0,7.5-1.1,10.7-3.1c1-0.6,2.3-1.4,11,8.1
		c0.6,0.7,0.6,1.7-0.1,2.3C769.4,627.5,769,627.6,768.6,627.6"/>
	<path class="st1" d="M750,590.4c0,1.5-1.3,2.8-2.8,2.8c-1.5,0-2.8-1.3-2.8-2.8c0-1.5,1.3-2.8,2.8-2.8
		C748.7,587.6,750,588.9,750,590.4"/>
	<path class="st1" d="M742,595.5c0,1.5-1.3,2.8-2.8,2.8c-1.5,0-2.8-1.3-2.8-2.8c0-1.5,1.2-2.8,2.8-2.8
		C740.7,592.7,742,594,742,595.5"/>
	<path class="st1" d="M750,600.2c0,1.5-1.3,2.8-2.8,2.8c-1.5,0-2.8-1.3-2.8-2.8c0-1.5,1.3-2.8,2.8-2.8
		C748.7,597.4,750,598.7,750,600.2"/>
	<path class="st1" d="M759.3,595.5c0,1.5-1.3,2.8-2.8,2.8c-1.5,0-2.8-1.3-2.8-2.8c0-1.5,1.3-2.8,2.8-2.8
		C758,592.7,759.3,594,759.3,595.5"/>
	<path class="st1" d="M759.3,605.4c0,1.5-1.3,2.8-2.8,2.8c-1.5,0-2.8-1.2-2.8-2.8c0-1.5,1.3-2.8,2.8-2.8
		C758,602.7,759.3,603.9,759.3,605.4"/>
	<path class="st1" d="M750,610.7c0,1.5-1.3,2.8-2.8,2.8c-1.5,0-2.8-1.3-2.8-2.8c0-1.5,1.3-2.8,2.8-2.8
		C748.7,607.9,750,609.1,750,610.7"/>
	<path class="st1" d="M742,605.4c0,1.5-1.3,2.8-2.8,2.8c-1.5,0-2.8-1.2-2.8-2.8c0-1.5,1.2-2.8,2.8-2.8
		C740.7,602.7,742,603.9,742,605.4"/>
</g>
<g>
	<circle class="st0" cx="100" cy="100" r="89"/>
	<g>
		<path class="st1" d="M131,149.7c-0.4,0-0.9-0.2-1.1-0.5l-22.5-22.7c-0.6-0.6-0.6-1.6-0.1-2.2l1.7-1.9l-10.8-11
			c-0.3-0.3-0.5-0.7-0.5-1.2c0-0.4,0.2-0.8,0.5-1.2l5.8-5.6c0.3-0.3,0.8-0.5,1.2-0.5c0.4,0,0.8,0.2,1.1,0.5l10.1,10.6l1.7-1.9
			c0.3-0.3,0.7-0.5,1.2-0.5c0.6,0,0.9,0.2,1.2,0.5l22.7,23.1c0.3,0.3,0.4,0.6,0.5,0.9c0,0.2,0.5,4.9-2.6,8.7
			c-2.2,2.7-5.5,4.2-9.9,4.6C131.1,149.7,131.1,149.7,131,149.7 M110.7,125.3l20.9,21.1c3.1-0.4,5.4-1.5,6.9-3.3
			c1.7-2.1,1.9-4.7,1.9-5.8l-21.1-21.5l-1.7,1.9c-0.3,0.3-0.7,0.5-1.2,0.5h0c-0.4,0-0.9-0.2-1.2-0.5L105.1,107l-3.4,3.3l10.7,10.9
			c0.6,0.6,0.6,1.6,0.1,2.2L110.7,125.3z"/>
		<path class="st1" d="M68,149.7c0,0-0.1,0-0.1,0c-4.4-0.4-7.7-1.9-9.9-4.6c-3.1-3.8-2.6-8.5-2.6-8.7c0-0.4,0.2-0.7,0.5-0.9l2.3-2.3
			c0.6-0.6,1.7-0.7,2.3,0c0.6,0.6,0.6,1.7,0,2.3l-1.8,1.9c0,1.1,0.2,3.7,1.9,5.8c1.5,1.8,3.8,2.9,6.9,3.3l20.9-21.1l-1.7-1.9
			c-0.6-0.6-0.5-1.6,0.1-2.2l28.8-28.8c0.5-0.5,1.2-0.6,1.8-0.3l12.7,5.5l21.2-21.6L128,53.1l-21.1,21.3l5.5,12.9
			c0.3,0.6,0.1,1.3-0.3,1.8l-28.3,28.6c-0.3,0.3-0.8,0.5-1.2,0.5c-0.4,0-0.9-0.2-1.2-0.5l-1.7-1.9L66.7,129c-0.6,0.6-1.7,0.6-2.3,0
			c-0.6-0.6-0.7-1.7,0-2.3l14.1-14.4c0.3-0.3,0.7-0.5,1.2-0.5h0c0.4,0,0.9,0.2,1.2,0.5l1.7,1.9l26.4-26.7l-5.5-12.9
			c-0.3-0.6-0.1-1.3,0.3-1.8l23.1-23.2c0.6-0.6,1.7-0.6,2.3,0l25.4,25c0.6,0.6,0.6,1.6,0,2.3l-23.1,23.6c-0.5,0.5-1.2,0.6-1.8,0.4
			L117,95.5l-27,27l1.7,1.9c0.6,0.6,0.5,1.6-0.1,2.2l-22.5,22.7C68.8,149.6,68.4,149.7,68,149.7"/>
		<path class="st1" d="M114.1,78c-0.4,0-0.8-0.2-1.2-0.5c-0.6-0.6-0.6-1.7,0-2.3l15-14.7c0.6-0.6,1.7-0.6,2.3,0
			c0.6,0.6,0.6,1.7,0,2.3l-15,14.7C115,77.9,114.6,78,114.1,78"/>
		<path class="st1" d="M120.1,86c-0.4,0-0.8-0.2-1.2-0.5c-0.6-0.6-0.6-1.7,0-2.3l16-15.8c0.6-0.6,1.7-0.6,2.3,0
			c0.6,0.6,0.6,1.7,0,2.3l-16,15.8C120.9,85.8,120.5,86,120.1,86"/>
		<path class="st1" d="M126.4,92c-0.4,0-0.9-0.2-1.2-0.5c-0.6-0.6-0.6-1.7,0-2.3l16.4-16c0.6-0.6,1.7-0.6,2.3,0
			c0.6,0.6,0.6,1.7,0,2.3l-16.4,16C127.2,91.9,126.8,92,126.4,92"/>
		<path class="st1" d="M93.6,105.6c-0.4,0-0.9-0.2-1.2-0.5c-2.7-3-6.2-6.3-7.6-7.2c-3.6,2.1-7.7,3.2-11.8,3.2
			c-12.9,0-23.5-10.5-23.5-23.5C49.5,64.7,60,54.2,73,54.2c12.9,0,23.5,10.5,23.5,23.5c0,4.5-1.8,9.6-3.7,13l7.3,7.7
			c0.6,0.6,0.6,1.7-0.1,2.3c-0.6,0.6-1.7,0.6-2.3-0.1l-8.1-8.6c-0.5-0.5-0.6-1.4-0.2-2c1.9-3,3.9-8.2,3.9-12.3
			c0-11.1-9.1-20.2-20.2-20.2c-11.1,0-20.2,9.1-20.2,20.2c0,11.2,9.1,20.2,20.2,20.2c3.8,0,7.5-1.1,10.7-3.1c1-0.6,2.3-1.4,11,8.1
			c0.6,0.7,0.6,1.7-0.1,2.3C94.4,105.5,94,105.6,93.6,105.6"/>
		<path class="st1" d="M75,68.4c0,1.5-1.3,2.8-2.8,2.8c-1.5,0-2.8-1.3-2.8-2.8c0-1.5,1.3-2.8,2.8-2.8C73.7,65.6,75,66.9,75,68.4"/>
		<path class="st1" d="M67,73.5c0,1.5-1.3,2.8-2.8,2.8c-1.5,0-2.8-1.3-2.8-2.8c0-1.5,1.2-2.8,2.8-2.8C65.7,70.7,67,72,67,73.5"/>
		<path class="st1" d="M75,78.2c0,1.5-1.3,2.8-2.8,2.8c-1.5,0-2.8-1.3-2.8-2.8c0-1.5,1.3-2.8,2.8-2.8C73.7,75.4,75,76.7,75,78.2"/>
		<path class="st1" d="M84.3,73.5c0,1.5-1.3,2.8-2.8,2.8c-1.5,0-2.8-1.3-2.8-2.8c0-1.5,1.3-2.8,2.8-2.8C83,70.7,84.3,72,84.3,73.5"
			/>
		<path class="st1" d="M84.3,83.4c0,1.5-1.3,2.8-2.8,2.8c-1.5,0-2.8-1.2-2.8-2.8c0-1.5,1.3-2.8,2.8-2.8C83,80.7,84.3,81.9,84.3,83.4
			"/>
		<path class="st1" d="M75,88.7c0,1.5-1.3,2.8-2.8,2.8c-1.5,0-2.8-1.3-2.8-2.8c0-1.5,1.3-2.8,2.8-2.8C73.7,85.9,75,87.1,75,88.7"/>
		<path class="st1" d="M67,83.4c0,1.5-1.3,2.8-2.8,2.8c-1.5,0-2.8-1.2-2.8-2.8c0-1.5,1.2-2.8,2.8-2.8C65.7,80.7,67,81.9,67,83.4"/>
	</g>
</g>
</svg>
