<?xml version="1.0" encoding="utf-8"?>
<!-- Generator: Adobe Illustrator 21.0.0, SVG Export Plug-In . SVG Version: 6.00 Build 0)  -->
<svg version="1.1" id="Capa_1" xmlns="http://www.w3.org/2000/svg" xmlns:xlink="http://www.w3.org/1999/xlink" x="0px" y="0px"
	 viewBox="0 0 80 80" style="enable-background:new 0 0 80 80;" xml:space="preserve">
<style type="text/css">
	.st0{fill:#E97721;}
	.st1{fill:#FFFFFF;}
</style>
<circle class="st0" cx="717" cy="563.5" r="89"/>
<g>
	<path class="st1" d="M748,613.2c-0.4,0-0.9-0.2-1.1-0.5L724.4,590c-0.6-0.6-0.6-1.6-0.1-2.2l1.7-1.9l-10.8-11
		c-0.3-0.3-0.5-0.7-0.5-1.2c0-0.4,0.2-0.8,0.5-1.2l5.8-5.6c0.3-0.3,0.8-0.5,1.2-0.5c0.4,0,0.8,0.2,1.1,0.5l10.1,10.6l1.7-1.9
		c0.3-0.3,0.7-0.5,1.2-0.5c0.6,0,0.9,0.2,1.2,0.5l22.7,23.1c0.3,0.3,0.4,0.6,0.5,0.9c0,0.2,0.5,4.9-2.6,8.7
		c-2.2,2.7-5.5,4.2-9.9,4.6C748.1,613.2,748.1,613.2,748,613.2 M727.7,588.8l20.9,21.1c3.1-0.4,5.4-1.5,6.9-3.3
		c1.7-2.1,1.9-4.7,1.9-5.8l-21.1-21.5l-1.7,1.9c-0.3,0.3-0.7,0.5-1.2,0.5h0c-0.4,0-0.9-0.2-1.2-0.5l-10.2-10.7l-3.4,3.3l10.7,10.9
		c0.6,0.6,0.6,1.6,0.1,2.2L727.7,588.8z"/>
	<path class="st1" d="M685,613.2c0,0-0.1,0-0.1,0c-4.4-0.4-7.7-1.9-9.9-4.6c-3.1-3.8-2.6-8.5-2.6-8.7c0-0.4,0.2-0.7,0.5-0.9l2.3-2.3
		c0.6-0.6,1.7-0.7,2.3,0c0.6,0.6,0.6,1.7,0,2.3l-1.8,1.9c0,1.1,0.2,3.7,1.9,5.8c1.5,1.8,3.8,2.9,6.9,3.3l20.9-21.1l-1.7-1.9
		c-0.6-0.6-0.5-1.6,0.1-2.2l28.8-28.8c0.5-0.5,1.2-0.6,1.8-0.3l12.7,5.5l21.2-21.6L745,516.6l-21.1,21.3l5.5,12.9
		c0.3,0.6,0.1,1.3-0.3,1.8l-28.3,28.6c-0.3,0.3-0.8,0.5-1.2,0.5c-0.4,0-0.9-0.2-1.2-0.5l-1.7-1.9l-12.9,13.2c-0.6,0.6-1.7,0.6-2.3,0
		c-0.6-0.6-0.7-1.7,0-2.3l14.1-14.4c0.3-0.3,0.7-0.5,1.2-0.5h0c0.4,0,0.9,0.2,1.2,0.5l1.7,1.9l26.4-26.7l-5.5-12.9
		c-0.3-0.6-0.1-1.3,0.3-1.8l23.1-23.2c0.6-0.6,1.7-0.6,2.3,0l25.4,25c0.6,0.6,0.6,1.6,0,2.3l-23.1,23.6c-0.5,0.5-1.2,0.6-1.8,0.4
		L734,559l-27,27l1.7,1.9c0.6,0.6,0.5,1.6-0.1,2.2l-22.5,22.7C685.8,613.1,685.4,613.2,685,613.2"/>
	<path class="st1" d="M731.1,541.5c-0.4,0-0.8-0.2-1.2-0.5c-0.6-0.6-0.6-1.7,0-2.3l15-14.7c0.6-0.6,1.7-0.6,2.3,0
		c0.6,0.6,0.6,1.7,0,2.3l-15,14.7C732,541.4,731.6,541.5,731.1,541.5"/>
	<path class="st1" d="M737.1,549.5c-0.4,0-0.8-0.2-1.2-0.5c-0.6-0.6-0.6-1.7,0-2.3l16-15.8c0.6-0.6,1.7-0.6,2.3,0
		c0.6,0.6,0.6,1.7,0,2.3l-16,15.8C737.9,549.3,737.5,549.5,737.1,549.5"/>
	<path class="st1" d="M743.4,555.5c-0.4,0-0.9-0.2-1.2-0.5c-0.6-0.6-0.6-1.7,0-2.3l16.4-16c0.6-0.6,1.7-0.6,2.3,0
		c0.6,0.6,0.6,1.7,0,2.3l-16.4,16C744.2,555.4,743.8,555.5,743.4,555.5"/>
	<path class="st1" d="M710.6,569.1c-0.4,0-0.9-0.2-1.2-0.5c-2.7-3-6.2-6.3-7.6-7.2c-3.6,2.1-7.7,3.2-11.8,3.2
		c-12.9,0-23.5-10.5-23.5-23.5c0-12.9,10.5-23.5,23.5-23.5c12.9,0,23.5,10.5,23.5,23.5c0,4.5-1.8,9.6-3.7,13l7.3,7.7
		c0.6,0.6,0.6,1.7-0.1,2.3c-0.6,0.6-1.7,0.6-2.3-0.1l-8.1-8.6c-0.5-0.5-0.6-1.4-0.2-2c1.9-3,3.9-8.2,3.9-12.3
		c0-11.1-9.1-20.2-20.2-20.2c-11.1,0-20.2,9.1-20.2,20.2c0,11.2,9.1,20.2,20.2,20.2c3.8,0,7.5-1.1,10.7-3.1c1-0.6,2.3-1.4,11,8.1
		c0.6,0.7,0.6,1.7-0.1,2.3C711.4,569,711,569.1,710.6,569.1"/>
	<path class="st1" d="M692,531.9c0,1.5-1.3,2.8-2.8,2.8c-1.5,0-2.8-1.3-2.8-2.8c0-1.5,1.3-2.8,2.8-2.8
		C690.7,529.1,692,530.4,692,531.9"/>
	<path class="st1" d="M684,537c0,1.5-1.3,2.8-2.8,2.8c-1.5,0-2.8-1.3-2.8-2.8c0-1.5,1.2-2.8,2.8-2.8C682.7,534.2,684,535.5,684,537"
		/>
	<path class="st1" d="M692,541.7c0,1.5-1.3,2.8-2.8,2.8c-1.5,0-2.8-1.3-2.8-2.8c0-1.5,1.3-2.8,2.8-2.8
		C690.7,538.9,692,540.2,692,541.7"/>
	<path class="st1" d="M701.3,537c0,1.5-1.3,2.8-2.8,2.8c-1.5,0-2.8-1.3-2.8-2.8c0-1.5,1.3-2.8,2.8-2.8
		C700,534.2,701.3,535.5,701.3,537"/>
	<path class="st1" d="M701.3,546.9c0,1.5-1.3,2.8-2.8,2.8c-1.5,0-2.8-1.2-2.8-2.8c0-1.5,1.3-2.8,2.8-2.8
		C700,544.2,701.3,545.4,701.3,546.9"/>
	<path class="st1" d="M692,552.2c0,1.5-1.3,2.8-2.8,2.8c-1.5,0-2.8-1.3-2.8-2.8c0-1.5,1.3-2.8,2.8-2.8
		C690.7,549.4,692,550.6,692,552.2"/>
	<path class="st1" d="M684,546.9c0,1.5-1.3,2.8-2.8,2.8c-1.5,0-2.8-1.2-2.8-2.8c0-1.5,1.2-2.8,2.8-2.8
		C682.7,544.2,684,545.4,684,546.9"/>
</g>
<circle class="st0" cx="717" cy="563.5" r="89"/>
<g>
	<path class="st1" d="M748,613.2c-0.4,0-0.9-0.2-1.1-0.5L724.4,590c-0.6-0.6-0.6-1.6-0.1-2.2l1.7-1.9l-10.8-11
		c-0.3-0.3-0.5-0.7-0.5-1.2c0-0.4,0.2-0.8,0.5-1.2l5.8-5.6c0.3-0.3,0.8-0.5,1.2-0.5c0.4,0,0.8,0.2,1.1,0.5l10.1,10.6l1.7-1.9
		c0.3-0.3,0.7-0.5,1.2-0.5c0.6,0,0.9,0.2,1.2,0.5l22.7,23.1c0.3,0.3,0.4,0.6,0.5,0.9c0,0.2,0.5,4.9-2.6,8.7
		c-2.2,2.7-5.5,4.2-9.9,4.6C748.1,613.2,748.1,613.2,748,613.2 M727.7,588.8l20.9,21.1c3.1-0.4,5.4-1.5,6.9-3.3
		c1.7-2.1,1.9-4.7,1.9-5.8l-21.1-21.5l-1.7,1.9c-0.3,0.3-0.7,0.5-1.2,0.5h0c-0.4,0-0.9-0.2-1.2-0.5l-10.2-10.7l-3.4,3.3l10.7,10.9
		c0.6,0.6,0.6,1.6,0.1,2.2L727.7,588.8z"/>
	<path class="st1" d="M685,613.2c0,0-0.1,0-0.1,0c-4.4-0.4-7.7-1.9-9.9-4.6c-3.1-3.8-2.6-8.5-2.6-8.7c0-0.4,0.2-0.7,0.5-0.9l2.3-2.3
		c0.6-0.6,1.7-0.7,2.3,0c0.6,0.6,0.6,1.7,0,2.3l-1.8,1.9c0,1.1,0.2,3.7,1.9,5.8c1.5,1.8,3.8,2.9,6.9,3.3l20.9-21.1l-1.7-1.9
		c-0.6-0.6-0.5-1.6,0.1-2.2l28.8-28.8c0.5-0.5,1.2-0.6,1.8-0.3l12.7,5.5l21.2-21.6L745,516.6l-21.1,21.3l5.5,12.9
		c0.3,0.6,0.1,1.3-0.3,1.8l-28.3,28.6c-0.3,0.3-0.8,0.5-1.2,0.5c-0.4,0-0.9-0.2-1.2-0.5l-1.7-1.9l-12.9,13.2c-0.6,0.6-1.7,0.6-2.3,0
		c-0.6-0.6-0.7-1.7,0-2.3l14.1-14.4c0.3-0.3,0.7-0.5,1.2-0.5h0c0.4,0,0.9,0.2,1.2,0.5l1.7,1.9l26.4-26.7l-5.5-12.9
		c-0.3-0.6-0.1-1.3,0.3-1.8l23.1-23.2c0.6-0.6,1.7-0.6,2.3,0l25.4,25c0.6,0.6,0.6,1.6,0,2.3l-23.1,23.6c-0.5,0.5-1.2,0.6-1.8,0.4
		L734,559l-27,27l1.7,1.9c0.6,0.6,0.5,1.6-0.1,2.2l-22.5,22.7C685.8,613.1,685.4,613.2,685,613.2"/>
	<path class="st1" d="M731.1,541.5c-0.4,0-0.8-0.2-1.2-0.5c-0.6-0.6-0.6-1.7,0-2.3l15-14.7c0.6-0.6,1.7-0.6,2.3,0
		c0.6,0.6,0.6,1.7,0,2.3l-15,14.7C732,541.4,731.6,541.5,731.1,541.5"/>
	<path class="st1" d="M737.1,549.5c-0.4,0-0.8-0.2-1.2-0.5c-0.6-0.6-0.6-1.7,0-2.3l16-15.8c0.6-0.6,1.7-0.6,2.3,0
		c0.6,0.6,0.6,1.7,0,2.3l-16,15.8C737.9,549.3,737.5,549.5,737.1,549.5"/>
	<path class="st1" d="M743.4,555.5c-0.4,0-0.9-0.2-1.2-0.5c-0.6-0.6-0.6-1.7,0-2.3l16.4-16c0.6-0.6,1.7-0.6,2.3,0
		c0.6,0.6,0.6,1.7,0,2.3l-16.4,16C744.2,555.4,743.8,555.5,743.4,555.5"/>
	<path class="st1" d="M710.6,569.1c-0.4,0-0.9-0.2-1.2-0.5c-2.7-3-6.2-6.3-7.6-7.2c-3.6,2.1-7.7,3.2-11.8,3.2
		c-12.9,0-23.5-10.5-23.5-23.5c0-12.9,10.5-23.5,23.5-23.5c12.9,0,23.5,10.5,23.5,23.5c0,4.5-1.8,9.6-3.7,13l7.3,7.7
		c0.6,0.6,0.6,1.7-0.1,2.3c-0.6,0.6-1.7,0.6-2.3-0.1l-8.1-8.6c-0.5-0.5-0.6-1.4-0.2-2c1.9-3,3.9-8.2,3.9-12.3
		c0-11.1-9.1-20.2-20.2-20.2c-11.1,0-20.2,9.1-20.2,20.2c0,11.2,9.1,20.2,20.2,20.2c3.8,0,7.5-1.1,10.7-3.1c1-0.6,2.3-1.4,11,8.1
		c0.6,0.7,0.6,1.7-0.1,2.3C711.4,569,711,569.1,710.6,569.1"/>
	<path class="st1" d="M692,531.9c0,1.5-1.3,2.8-2.8,2.8c-1.5,0-2.8-1.3-2.8-2.8c0-1.5,1.3-2.8,2.8-2.8
		C690.7,529.1,692,530.4,692,531.9"/>
	<path class="st1" d="M684,537c0,1.5-1.3,2.8-2.8,2.8c-1.5,0-2.8-1.3-2.8-2.8c0-1.5,1.2-2.8,2.8-2.8C682.7,534.2,684,535.5,684,537"
		/>
	<path class="st1" d="M692,541.7c0,1.5-1.3,2.8-2.8,2.8c-1.5,0-2.8-1.3-2.8-2.8c0-1.5,1.3-2.8,2.8-2.8
		C690.7,538.9,692,540.2,692,541.7"/>
	<path class="st1" d="M701.3,537c0,1.5-1.3,2.8-2.8,2.8c-1.5,0-2.8-1.3-2.8-2.8c0-1.5,1.3-2.8,2.8-2.8
		C700,534.2,701.3,535.5,701.3,537"/>
	<path class="st1" d="M701.3,546.9c0,1.5-1.3,2.8-2.8,2.8c-1.5,0-2.8-1.2-2.8-2.8c0-1.5,1.3-2.8,2.8-2.8
		C700,544.2,701.3,545.4,701.3,546.9"/>
	<path class="st1" d="M692,552.2c0,1.5-1.3,2.8-2.8,2.8c-1.5,0-2.8-1.3-2.8-2.8c0-1.5,1.3-2.8,2.8-2.8
		C690.7,549.4,692,550.6,692,552.2"/>
	<path class="st1" d="M684,546.9c0,1.5-1.3,2.8-2.8,2.8c-1.5,0-2.8-1.2-2.8-2.8c0-1.5,1.2-2.8,2.8-2.8
		C682.7,544.2,684,545.4,684,546.9"/>
</g>
<g>
	<path class="st1" d="M55.7,67.4c-0.2,0-0.5-0.1-0.6-0.3L42.8,54.8c-0.3-0.3-0.3-0.9,0-1.2l0.9-1l-5.9-6c-0.2-0.2-0.3-0.4-0.3-0.6
		c0-0.2,0.1-0.5,0.3-0.6l3.1-3c0.2-0.2,0.4-0.3,0.6-0.2c0.2,0,0.5,0.1,0.6,0.3l5.5,5.8l0.9-1c0.2-0.2,0.4-0.3,0.6-0.3
		c0.3,0,0.5,0.1,0.6,0.3l12.4,12.6c0.1,0.1,0.2,0.3,0.2,0.5c0,0.1,0.3,2.7-1.4,4.8C60,66.3,58.1,67.2,55.7,67.4
		C55.7,67.4,55.7,67.4,55.7,67.4 M44.6,54.1L56,65.6c1.7-0.2,3-0.8,3.8-1.8c0.9-1.2,1-2.6,1-3.2L49.3,48.9l-0.9,1
		c-0.2,0.2-0.4,0.3-0.6,0.3h0c-0.2,0-0.5-0.1-0.6-0.3l-5.5-5.8l-1.9,1.8l5.8,5.9c0.3,0.3,0.3,0.9,0,1.2L44.6,54.1z"/>
	<path class="st1" d="M21.3,67.4C21.3,67.4,21.3,67.4,21.3,67.4c-2.5-0.2-4.3-1.1-5.5-2.5c-1.7-2.1-1.4-4.6-1.4-4.8
		c0-0.2,0.1-0.4,0.2-0.5l1.2-1.3c0.3-0.3,0.9-0.4,1.3,0c0.3,0.3,0.4,0.9,0,1.3l-1,1c0,0.6,0.1,2,1,3.2c0.8,1,2.1,1.6,3.8,1.8
		l11.4-11.5L31.4,53c-0.3-0.3-0.3-0.9,0-1.2l15.7-15.7c0.3-0.3,0.6-0.3,1-0.2l6.9,3l11.5-11.8L54,14.8L42.5,26.4l3,7
		c0.1,0.3,0.1,0.7-0.2,1L29.9,49.9c-0.2,0.2-0.4,0.3-0.6,0.3c-0.2,0-0.5-0.1-0.6-0.3l-0.9-1l-7,7.2c-0.3,0.4-0.9,0.4-1.2,0
		c-0.4-0.3-0.4-0.9,0-1.2l7.7-7.8c0.2-0.2,0.4-0.3,0.6-0.3h0c0.2,0,0.5,0.1,0.6,0.3l0.9,1l14.4-14.5l-3-7c-0.1-0.3-0.1-0.7,0.2-1
		l12.6-12.7c0.3-0.3,0.9-0.3,1.3,0l13.8,13.6c0.3,0.3,0.4,0.9,0,1.3L55.9,40.6c-0.3,0.3-0.6,0.3-1,0.2l-6.9-3L33.3,52.5l0.9,1
		c0.3,0.3,0.3,0.9,0,1.2L21.9,67.1C21.8,67.3,21.5,67.4,21.3,67.4"/>
	<path class="st1" d="M46.5,28.3c-0.2,0-0.5-0.1-0.6-0.3c-0.3-0.3-0.3-0.9,0-1.3l8.1-8c0.3-0.3,0.9-0.3,1.3,0c0.3,0.3,0.3,0.9,0,1.2
		l-8.1,8C46.9,28.2,46.7,28.3,46.5,28.3"/>
	<path class="st1" d="M49.7,32.6c-0.2,0-0.5-0.1-0.6-0.3c-0.3-0.3-0.3-0.9,0-1.3l8.7-8.6c0.3-0.3,0.9-0.3,1.2,0
		c0.3,0.3,0.3,0.9,0,1.2l-8.7,8.6C50.2,32.5,49.9,32.6,49.7,32.6"/>
	<path class="st1" d="M53.2,35.9c-0.2,0-0.5-0.1-0.6-0.3c-0.3-0.3-0.3-0.9,0-1.2l9-8.7c0.3-0.3,0.9-0.3,1.2,0c0.3,0.4,0.3,0.9,0,1.3
		l-9,8.7C53.6,35.9,53.4,35.9,53.2,35.9"/>
	<path class="st1" d="M35.3,43.3c-0.2,0-0.5-0.1-0.6-0.3c-1.5-1.6-3.4-3.4-4.1-3.9c-2,1.1-4.2,1.7-6.5,1.7c-7,0-12.8-5.7-12.8-12.8
		c0-7,5.7-12.8,12.8-12.8c7,0,12.8,5.7,12.8,12.8c0,2.4-1,5.2-2,7.1l4,4.2c0.3,0.4,0.3,0.9,0,1.2c-0.4,0.3-0.9,0.3-1.3,0L33,35.9
		c-0.3-0.3-0.3-0.7-0.1-1.1c1.1-1.6,2.1-4.5,2.1-6.7c0-6.1-4.9-11-11-11c-6.1,0-11,4.9-11,11c0,6.1,4.9,11,11,11
		c2.1,0,4.1-0.6,5.8-1.7c0.6-0.3,1.2-0.8,6,4.4c0.3,0.4,0.3,0.9,0,1.3C35.7,43.3,35.5,43.3,35.3,43.3"/>
	<path class="st1" d="M25.1,23.1c0,0.8-0.7,1.5-1.5,1.5c-0.8,0-1.5-0.7-1.5-1.5c0-0.8,0.7-1.5,1.5-1.5
		C24.4,21.5,25.1,22.2,25.1,23.1"/>
	<path class="st1" d="M20.8,25.9c0,0.8-0.7,1.5-1.5,1.5c-0.8,0-1.5-0.7-1.5-1.5s0.7-1.5,1.5-1.5C20.1,24.3,20.8,25,20.8,25.9"/>
	<path class="st1" d="M25.1,28.4c0,0.8-0.7,1.5-1.5,1.5c-0.8,0-1.5-0.7-1.5-1.5c0-0.8,0.7-1.5,1.5-1.5
		C24.4,26.9,25.1,27.6,25.1,28.4"/>
	<path class="st1" d="M30.2,25.9c0,0.8-0.7,1.5-1.5,1.5c-0.8,0-1.5-0.7-1.5-1.5s0.7-1.5,1.5-1.5C29.5,24.3,30.2,25,30.2,25.9"/>
	<path class="st1" d="M30.2,31.3c0,0.8-0.7,1.5-1.5,1.5c-0.8,0-1.5-0.7-1.5-1.5c0-0.8,0.7-1.5,1.5-1.5
		C29.5,29.7,30.2,30.4,30.2,31.3"/>
	<path class="st1" d="M25.1,34.1c0,0.8-0.7,1.5-1.5,1.5c-0.8,0-1.5-0.7-1.5-1.5c0-0.8,0.7-1.5,1.5-1.5
		C24.4,32.6,25.1,33.3,25.1,34.1"/>
	<path class="st1" d="M20.8,31.3c0,0.8-0.7,1.5-1.5,1.5c-0.8,0-1.5-0.7-1.5-1.5c0-0.8,0.7-1.5,1.5-1.5
		C20.1,29.7,20.8,30.4,20.8,31.3"/>
</g>
</svg>
