<?xml version="1.0" encoding="utf-8"?>
<!-- Generator: Adobe Illustrator 21.0.0, SVG Export Plug-In . SVG Version: 6.00 Build 0)  -->
<svg version="1.1" id="Capa_1" xmlns="http://www.w3.org/2000/svg" xmlns:xlink="http://www.w3.org/1999/xlink" x="0px" y="0px"
	 viewBox="0 0 200 200" style="enable-background:new 0 0 200 200;" xml:space="preserve">
<style type="text/css">
	.st0{fill:#236293;}
	.st1{fill:#FFFFFF;}
</style>
<g>
	<g>
		<circle class="st0" cx="100" cy="99" r="89"/>
	</g>
	<g>
		<path class="st1" d="M100,128.8c-18.8,0-34.8-12.5-37.3-29.2C62.5,98,63,96.4,64,95.2c1.1-1.3,2.7-2,4.4-2h63.2
			c1.7,0,3.3,0.7,4.4,2c1.1,1.2,1.5,2.8,1.3,4.4C134.8,116.2,118.8,128.8,100,128.8z M68.4,97.2c-0.5,0-1,0.2-1.3,0.6
			c-0.2,0.2-0.5,0.6-0.4,1.2c2.2,14.7,16.5,25.8,33.3,25.8c16.8,0,31.2-11.1,33.3-25.8c0.1-0.6-0.2-1-0.4-1.2
			c-0.3-0.4-0.8-0.6-1.3-0.6H68.4z"/>
		<path class="st1" d="M122.2,148.9H77.8c-0.6,0-1.1-0.3-1.5-0.7c-0.4-0.4-0.5-1-0.5-1.6l3.5-23.6c0.2-1.1,1.2-1.9,2.3-1.7
			c1.1,0.2,1.8,1.2,1.7,2.3l-3.1,21.3h39.8l-2.3-15.8c-0.2-1.1,0.6-2.1,1.7-2.3c1.1-0.2,2.1,0.6,2.3,1.7l2.7,18.1
			c0.1,0.6-0.1,1.2-0.5,1.6C123.4,148.7,122.8,148.9,122.2,148.9z"/>
		<path class="st1" d="M116.8,96.5c-0.2,0-0.4,0-0.6-0.1c-1.1-0.3-1.6-1.4-1.3-2.5c0.9-2.9,1.3-6,1.3-9.2c0-12.7-7.3-23-16.3-23
			c-9,0-16.3,10.3-16.3,23c0,1.1-0.9,2-2,2s-2-0.9-2-2c0-14.9,9.1-27,20.3-27c11.2,0,20.3,12.1,20.3,27c0,3.6-0.5,7.1-1.5,10.3
			C118.5,96,117.7,96.5,116.8,96.5z"/>
		<path class="st1" d="M71.1,96.5c-0.9,0-1.8-0.7-2-1.6c-0.7-3.5-1-7-1-10.6c0-23.4,14.3-42.4,31.9-42.4c17.6,0,31.9,19,31.9,42.4
			c0,1.1-0.9,2-2,2s-2-0.9-2-2c0-21.2-12.5-38.4-27.9-38.4c-15.4,0-27.9,17.2-27.9,38.4c0,3.3,0.3,6.6,0.9,9.9
			c0.2,1.1-0.5,2.1-1.6,2.3C71.3,96.5,71.2,96.5,71.1,96.5z"/>
	</g>
</g>
</svg>
