<?xml version="1.0" encoding="utf-8"?>
<!-- Generator: Adobe Illustrator 21.0.0, SVG Export Plug-In . SVG Version: 6.00 Build 0)  -->
<svg version="1.1" id="Capa_1" xmlns="http://www.w3.org/2000/svg" xmlns:xlink="http://www.w3.org/1999/xlink" x="0px" y="0px"
	 viewBox="0 0 80 80" style="enable-background:new 0 0 80 80;" xml:space="preserve">
<style type="text/css">
	.st0{fill:#E97721;}
	.st1{fill:#FFFFFF;}
</style>
<circle class="st0" cx="717" cy="563.5" r="89"/>
<g>
	<path class="st1" d="M748,613.2c-0.4,0-0.9-0.2-1.1-0.5L724.4,590c-0.6-0.6-0.6-1.6-0.1-2.2l1.7-1.9l-10.8-11
		c-0.3-0.3-0.5-0.7-0.5-1.2c0-0.4,0.2-0.8,0.5-1.2l5.8-5.6c0.3-0.3,0.8-0.5,1.2-0.5c0.4,0,0.8,0.2,1.1,0.5l10.1,10.6l1.7-1.9
		c0.3-0.3,0.7-0.5,1.2-0.5c0.6,0,0.9,0.2,1.2,0.5l22.7,23.1c0.3,0.3,0.4,0.6,0.5,0.9c0,0.2,0.5,4.9-2.6,8.7
		c-2.2,2.7-5.5,4.2-9.9,4.6C748.1,613.2,748.1,613.2,748,613.2 M727.7,588.8l20.9,21.1c3.1-0.4,5.4-1.5,6.9-3.3
		c1.7-2.1,1.9-4.7,1.9-5.8l-21.1-21.5l-1.7,1.9c-0.3,0.3-0.7,0.5-1.2,0.5h0c-0.4,0-0.9-0.2-1.2-0.5l-10.2-10.7l-3.4,3.3l10.7,10.9
		c0.6,0.6,0.6,1.6,0.1,2.2L727.7,588.8z"/>
	<path class="st1" d="M685,613.2c0,0-0.1,0-0.1,0c-4.4-0.4-7.7-1.9-9.9-4.6c-3.1-3.8-2.6-8.5-2.6-8.7c0-0.4,0.2-0.7,0.5-0.9l2.3-2.3
		c0.6-0.6,1.7-0.7,2.3,0c0.6,0.6,0.6,1.7,0,2.3l-1.8,1.9c0,1.1,0.2,3.7,1.9,5.8c1.5,1.8,3.8,2.9,6.9,3.3l20.9-21.1l-1.7-1.9
		c-0.6-0.6-0.5-1.6,0.1-2.2l28.8-28.8c0.5-0.5,1.2-0.6,1.8-0.3l12.7,5.5l21.2-21.6L745,516.6l-21.1,21.3l5.5,12.9
		c0.3,0.6,0.1,1.3-0.3,1.8l-28.3,28.6c-0.3,0.3-0.8,0.5-1.2,0.5c-0.4,0-0.9-0.2-1.2-0.5l-1.7-1.9l-12.9,13.2c-0.6,0.6-1.7,0.6-2.3,0
		c-0.6-0.6-0.7-1.7,0-2.3l14.1-14.4c0.3-0.3,0.7-0.5,1.2-0.5h0c0.4,0,0.9,0.2,1.2,0.5l1.7,1.9l26.4-26.7l-5.5-12.9
		c-0.3-0.6-0.1-1.3,0.3-1.8l23.1-23.2c0.6-0.6,1.7-0.6,2.3,0l25.4,25c0.6,0.6,0.6,1.6,0,2.3l-23.1,23.6c-0.5,0.5-1.2,0.6-1.8,0.4
		L734,559l-27,27l1.7,1.9c0.6,0.6,0.5,1.6-0.1,2.2l-22.5,22.7C685.8,613.1,685.4,613.2,685,613.2"/>
	<path class="st1" d="M731.1,541.5c-0.4,0-0.8-0.2-1.2-0.5c-0.6-0.6-0.6-1.7,0-2.3l15-14.7c0.6-0.6,1.7-0.6,2.3,0
		c0.6,0.6,0.6,1.7,0,2.3l-15,14.7C732,541.4,731.6,541.5,731.1,541.5"/>
	<path class="st1" d="M737.1,549.5c-0.4,0-0.8-0.2-1.2-0.5c-0.6-0.6-0.6-1.7,0-2.3l16-15.8c0.6-0.6,1.7-0.6,2.3,0
		c0.6,0.6,0.6,1.7,0,2.3l-16,15.8C737.9,549.3,737.5,549.5,737.1,549.5"/>
	<path class="st1" d="M743.4,555.5c-0.4,0-0.9-0.2-1.2-0.5c-0.6-0.6-0.6-1.7,0-2.3l16.4-16c0.6-0.6,1.7-0.6,2.3,0
		c0.6,0.6,0.6,1.7,0,2.3l-16.4,16C744.2,555.4,743.8,555.5,743.4,555.5"/>
	<path class="st1" d="M710.6,569.1c-0.4,0-0.9-0.2-1.2-0.5c-2.7-3-6.2-6.3-7.6-7.2c-3.6,2.1-7.7,3.2-11.8,3.2
		c-12.9,0-23.5-10.5-23.5-23.5c0-12.9,10.5-23.5,23.5-23.5c12.9,0,23.5,10.5,23.5,23.5c0,4.5-1.8,9.6-3.7,13l7.3,7.7
		c0.6,0.6,0.6,1.7-0.1,2.3c-0.6,0.6-1.7,0.6-2.3-0.1l-8.1-8.6c-0.5-0.5-0.6-1.4-0.2-2c1.9-3,3.9-8.2,3.9-12.3
		c0-11.1-9.1-20.2-20.2-20.2c-11.1,0-20.2,9.1-20.2,20.2c0,11.2,9.1,20.2,20.2,20.2c3.8,0,7.5-1.1,10.7-3.1c1-0.6,2.3-1.4,11,8.1
		c0.6,0.7,0.6,1.7-0.1,2.3C711.4,569,711,569.1,710.6,569.1"/>
	<path class="st1" d="M692,531.9c0,1.5-1.3,2.8-2.8,2.8c-1.5,0-2.8-1.3-2.8-2.8c0-1.5,1.3-2.8,2.8-2.8
		C690.7,529.1,692,530.4,692,531.9"/>
	<path class="st1" d="M684,537c0,1.5-1.3,2.8-2.8,2.8c-1.5,0-2.8-1.3-2.8-2.8c0-1.5,1.2-2.8,2.8-2.8C682.7,534.2,684,535.5,684,537"
		/>
	<path class="st1" d="M692,541.7c0,1.5-1.3,2.8-2.8,2.8c-1.5,0-2.8-1.3-2.8-2.8c0-1.5,1.3-2.8,2.8-2.8
		C690.7,538.9,692,540.2,692,541.7"/>
	<path class="st1" d="M701.3,537c0,1.5-1.3,2.8-2.8,2.8c-1.5,0-2.8-1.3-2.8-2.8c0-1.5,1.3-2.8,2.8-2.8
		C700,534.2,701.3,535.5,701.3,537"/>
	<path class="st1" d="M701.3,546.9c0,1.5-1.3,2.8-2.8,2.8c-1.5,0-2.8-1.2-2.8-2.8c0-1.5,1.3-2.8,2.8-2.8
		C700,544.2,701.3,545.4,701.3,546.9"/>
	<path class="st1" d="M692,552.2c0,1.5-1.3,2.8-2.8,2.8c-1.5,0-2.8-1.3-2.8-2.8c0-1.5,1.3-2.8,2.8-2.8
		C690.7,549.4,692,550.6,692,552.2"/>
	<path class="st1" d="M684,546.9c0,1.5-1.3,2.8-2.8,2.8c-1.5,0-2.8-1.2-2.8-2.8c0-1.5,1.2-2.8,2.8-2.8
		C682.7,544.2,684,545.4,684,546.9"/>
</g>
<circle class="st0" cx="717" cy="563.5" r="89"/>
<g>
	<path class="st1" d="M748,613.2c-0.4,0-0.9-0.2-1.1-0.5L724.4,590c-0.6-0.6-0.6-1.6-0.1-2.2l1.7-1.9l-10.8-11
		c-0.3-0.3-0.5-0.7-0.5-1.2c0-0.4,0.2-0.8,0.5-1.2l5.8-5.6c0.3-0.3,0.8-0.5,1.2-0.5c0.4,0,0.8,0.2,1.1,0.5l10.1,10.6l1.7-1.9
		c0.3-0.3,0.7-0.5,1.2-0.5c0.6,0,0.9,0.2,1.2,0.5l22.7,23.1c0.3,0.3,0.4,0.6,0.5,0.9c0,0.2,0.5,4.9-2.6,8.7
		c-2.2,2.7-5.5,4.2-9.9,4.6C748.1,613.2,748.1,613.2,748,613.2 M727.7,588.8l20.9,21.1c3.1-0.4,5.4-1.5,6.9-3.3
		c1.7-2.1,1.9-4.7,1.9-5.8l-21.1-21.5l-1.7,1.9c-0.3,0.3-0.7,0.5-1.2,0.5h0c-0.4,0-0.9-0.2-1.2-0.5l-10.2-10.7l-3.4,3.3l10.7,10.9
		c0.6,0.6,0.6,1.6,0.1,2.2L727.7,588.8z"/>
	<path class="st1" d="M685,613.2c0,0-0.1,0-0.1,0c-4.4-0.4-7.7-1.9-9.9-4.6c-3.1-3.8-2.6-8.5-2.6-8.7c0-0.4,0.2-0.7,0.5-0.9l2.3-2.3
		c0.6-0.6,1.7-0.7,2.3,0c0.6,0.6,0.6,1.7,0,2.3l-1.8,1.9c0,1.1,0.2,3.7,1.9,5.8c1.5,1.8,3.8,2.9,6.9,3.3l20.9-21.1l-1.7-1.9
		c-0.6-0.6-0.5-1.6,0.1-2.2l28.8-28.8c0.5-0.5,1.2-0.6,1.8-0.3l12.7,5.5l21.2-21.6L745,516.6l-21.1,21.3l5.5,12.9
		c0.3,0.6,0.1,1.3-0.3,1.8l-28.3,28.6c-0.3,0.3-0.8,0.5-1.2,0.5c-0.4,0-0.9-0.2-1.2-0.5l-1.7-1.9l-12.9,13.2c-0.6,0.6-1.7,0.6-2.3,0
		c-0.6-0.6-0.7-1.7,0-2.3l14.1-14.4c0.3-0.3,0.7-0.5,1.2-0.5h0c0.4,0,0.9,0.2,1.2,0.5l1.7,1.9l26.4-26.7l-5.5-12.9
		c-0.3-0.6-0.1-1.3,0.3-1.8l23.1-23.2c0.6-0.6,1.7-0.6,2.3,0l25.4,25c0.6,0.6,0.6,1.6,0,2.3l-23.1,23.6c-0.5,0.5-1.2,0.6-1.8,0.4
		L734,559l-27,27l1.7,1.9c0.6,0.6,0.5,1.6-0.1,2.2l-22.5,22.7C685.8,613.1,685.4,613.2,685,613.2"/>
	<path class="st1" d="M731.1,541.5c-0.4,0-0.8-0.2-1.2-0.5c-0.6-0.6-0.6-1.7,0-2.3l15-14.7c0.6-0.6,1.7-0.6,2.3,0
		c0.6,0.6,0.6,1.7,0,2.3l-15,14.7C732,541.4,731.6,541.5,731.1,541.5"/>
	<path class="st1" d="M737.1,549.5c-0.4,0-0.8-0.2-1.2-0.5c-0.6-0.6-0.6-1.7,0-2.3l16-15.8c0.6-0.6,1.7-0.6,2.3,0
		c0.6,0.6,0.6,1.7,0,2.3l-16,15.8C737.9,549.3,737.5,549.5,737.1,549.5"/>
	<path class="st1" d="M743.4,555.5c-0.4,0-0.9-0.2-1.2-0.5c-0.6-0.6-0.6-1.7,0-2.3l16.4-16c0.6-0.6,1.7-0.6,2.3,0
		c0.6,0.6,0.6,1.7,0,2.3l-16.4,16C744.2,555.4,743.8,555.5,743.4,555.5"/>
	<path class="st1" d="M710.6,569.1c-0.4,0-0.9-0.2-1.2-0.5c-2.7-3-6.2-6.3-7.6-7.2c-3.6,2.1-7.7,3.2-11.8,3.2
		c-12.9,0-23.5-10.5-23.5-23.5c0-12.9,10.5-23.5,23.5-23.5c12.9,0,23.5,10.5,23.5,23.5c0,4.5-1.8,9.6-3.7,13l7.3,7.7
		c0.6,0.6,0.6,1.7-0.1,2.3c-0.6,0.6-1.7,0.6-2.3-0.1l-8.1-8.6c-0.5-0.5-0.6-1.4-0.2-2c1.9-3,3.9-8.2,3.9-12.3
		c0-11.1-9.1-20.2-20.2-20.2c-11.1,0-20.2,9.1-20.2,20.2c0,11.2,9.1,20.2,20.2,20.2c3.8,0,7.5-1.1,10.7-3.1c1-0.6,2.3-1.4,11,8.1
		c0.6,0.7,0.6,1.7-0.1,2.3C711.4,569,711,569.1,710.6,569.1"/>
	<path class="st1" d="M692,531.9c0,1.5-1.3,2.8-2.8,2.8c-1.5,0-2.8-1.3-2.8-2.8c0-1.5,1.3-2.8,2.8-2.8
		C690.7,529.1,692,530.4,692,531.9"/>
	<path class="st1" d="M684,537c0,1.5-1.3,2.8-2.8,2.8c-1.5,0-2.8-1.3-2.8-2.8c0-1.5,1.2-2.8,2.8-2.8C682.7,534.2,684,535.5,684,537"
		/>
	<path class="st1" d="M692,541.7c0,1.5-1.3,2.8-2.8,2.8c-1.5,0-2.8-1.3-2.8-2.8c0-1.5,1.3-2.8,2.8-2.8
		C690.7,538.9,692,540.2,692,541.7"/>
	<path class="st1" d="M701.3,537c0,1.5-1.3,2.8-2.8,2.8c-1.5,0-2.8-1.3-2.8-2.8c0-1.5,1.3-2.8,2.8-2.8
		C700,534.2,701.3,535.5,701.3,537"/>
	<path class="st1" d="M701.3,546.9c0,1.5-1.3,2.8-2.8,2.8c-1.5,0-2.8-1.2-2.8-2.8c0-1.5,1.3-2.8,2.8-2.8
		C700,544.2,701.3,545.4,701.3,546.9"/>
	<path class="st1" d="M692,552.2c0,1.5-1.3,2.8-2.8,2.8c-1.5,0-2.8-1.3-2.8-2.8c0-1.5,1.3-2.8,2.8-2.8
		C690.7,549.4,692,550.6,692,552.2"/>
	<path class="st1" d="M684,546.9c0,1.5-1.3,2.8-2.8,2.8c-1.5,0-2.8-1.2-2.8-2.8c0-1.5,1.2-2.8,2.8-2.8
		C682.7,544.2,684,545.4,684,546.9"/>
</g>
<g>
	<g>
		<path class="st1" d="M70,48.5h-4.7c-0.7,0-1.2-0.5-1.2-1.2c0-0.7,0.5-1.2,1.2-1.2H70c0.4,0,0.6-0.4,0.7-0.5
			c0.1-0.3,0.1-0.7-0.2-1.1L40.5,17c-0.3-0.2-0.6-0.2-0.9,0l-10.6,9.8c-0.3,0.3-0.8,0.4-1.3,0.2c-0.4-0.2-0.7-0.6-0.7-1.1v-9l-7.5,0
			v12c0,0.7-0.5,1.2-1.2,1.2s-1.2-0.5-1.2-1.2V15.8c0-0.3,0.1-0.6,0.3-0.8c0.2-0.2,0.5-0.3,0.8-0.3c0,0,0,0,0,0l9.9,0
			c0.7,0,1.2,0.5,1.2,1.2v7.5l8.7-7.9c1.2-1.1,2.9-1.1,4.1,0l30,27.6c1,0.9,1.3,2.4,0.8,3.7C72.4,47.7,71.3,48.5,70,48.5z"/>
		<path class="st1" d="M21.4,65.5c-0.7,0-1.2-0.5-1.2-1.2v-17c0-0.7,0.5-1.2,1.2-1.2s1.2,0.5,1.2,1.2v17
			C22.6,65,22.1,65.5,21.4,65.5z"/>
		<path class="st1" d="M60,65.5c-0.7,0-1.2-0.5-1.2-1.2V48.5H9.9c-1.3,0-2.4-0.8-2.9-2c-0.5-1.3-0.2-2.7,0.8-3.7l9.6-8.8
			c0.5-0.4,1.2-0.4,1.7,0.1c0.4,0.5,0.4,1.2-0.1,1.7l-9.6,8.8c-0.3,0.3-0.3,0.8-0.2,1.1c0.1,0.2,0.2,0.5,0.7,0.5H60
			c0.7,0,1.2,0.5,1.2,1.2v17C61.2,65,60.7,65.5,60,65.5z"/>
	</g>
</g>
</svg>
